<svg viewBox="0 0 182.7 100" xmlns="http://www.w3.org/2000/svg"><path d="m16.9 89.1c1.4-1.6 3.1-3.3 4.2-4.1-.3 0-.7-.1-1.2-.2-1.1 1-2.4 2.4-3.6 3.7-1.5 1.7-2.8 3.1-2.8 3.1v.1c-1 .3-2.7.7-3.8 1.1-1.7.5-3.2.4-3.2 1.4 0 0-1.7.9-1.3 2.3 0 0 3.5-2.8 6.5-3.3 0 0-1.8 1.2-1.7 2.8 0 0 2.5-3.7 5.3-1.4 0 0-1.3-1.7-.7-2.7.3-.6 1.2-1.6 2.3-2.8zm-5.5-43.3c-.2.1-.3.1-.5.1-.5 0-1-.3-1.2-.8v-.1l-.4.1c.3.9 1.3 1.4 2.1 1.1l.6-.3c.5-.4.7-1.2.4-1.9l-.9.3c.1.1.1.3.1.4s0 .2-.1.4l.4.2c-.1.1-.2.2-.3.3.1.1-.1.1-.2.2zm35.1-2.8-17.1 4.2 33.4-14.5-27.6 3.4 14.8-10.8-15.8 6.2 2.4-4.8-11.3 8.1-.1-.2 16-34.6-26.1 30.8-.1-16.8-9.6 22.5-.5-6.6-4.7 17.2s.6-.5 1.5-.7c.1 0 .1 0 .2-.1h.2.2.2.2.2.2c.1 0 .1 0 .2.1 1.6.6 3 0 3 0s1.5 1 1.5 1.8-2 .1-2-.8c0 0-2.6-.9-6.1.4l7.5 3.2s-.4-1.4 0-1.9c.5-.1.8-.2 1.1-.1h.3c.6-.6-2.3-5.9-2.3-5.9s-2.6-.2-4.8 2.1c-.1.2-.3.3-.4.5.2-.4.9-1.5 2.1-2.5.8-.6 1.7-1.1 2.8-1.4.3-.7-.1-.2.5-.6.3-1.9 1.3-6.6 4.9-10.7.2-.3.5-.5.8-.8 0 0-.9 1.7-.9 3 0 0 .9-1.4 2.2-2.7v.1c-.2.5-2 4.2-1.8 5.3l3.5-3.2c-.1.1-3.3 4.4-3.6 5.9l5.3-3.8s-.7.9-.9 1.4c-.2.4-.2.5-.2.5l2.8-1.2s-.1.1-.3.4l-1.1 1.1-.3.3-1.9 1.8-1.5 1.5-.9 1s-.8.8-.9 1.2.3.7.3.7c.4.2.7.6.9 1 .1.2.2.5.2.8 0 .6-.2 1.1-.6 1.4-.4.4-.9.6-1.5.6-.5 0-1-.2-1.4-.5.1.1 1.1 1.4 3 .4l2.4-1.7.1-.1 2.4-1.8c.6.7 1.1 1.5 1.6 2.4-1.4 1.4-3.9 3.8-6.4 6.4-1.5 1.6-2.9 3.2-4.2 4.7l.9-4.1.1-.3s0 0-.1 0 0 0-.1.1c0 0 0 0-.1 0 0 0 0 0-.1.1s-.1 0-.1.1c0 0 0 0-.1 0 0 0 0 .1-.1.1s0 0-.1 0-.1.1-.1.1 0 0-.1.1c0 0-.1.1-.1.1s0 0-.1.1c0 0 0 0-.1.1v.1s0 0-.1.1v.1s-.1.1-.1.1-.1.1-.1.1-.1.1-.1.1-.1.1-.1.1-.1.1-.1.1-.1.1-.1.1-.1.1-.1.1 0 .1-.1.1c0 .1-.1.1-.1.1s-.1.1-.1.1c0 .1-.1.1-.1.2 0 0 0 .1-.1.1-.1.1-.1.2-.2.3-.1.1-.1.2-.2.3 0 0 0 .1-.1.1 0 .1-.1.1-.1.2 0 0 0 .1-.1.1 0 .1-.1.1-.1.2 0 0 0 .1-.1.1 0 .1-.1.1-.1.2 0 0 0 .1-.1.1 0 .1-.1.1-.1.2 0 0 0 .1-.1.1 0 .1-.1.2-.1.2s0 .1-.1.1c-.2.4-.4.7-.6 1.1l-1 .2c.2-.5.4-1 .6-1.4l-1.6 2.2 1.6-.2c-1.4 3.1-2.3 7.2-2.3 13l1.3-.8c1.1 6.5 6.5 9.3 6.5 9.3 2.9 1.9 6.5 3.3 10.4 3.8.5.1 1 .1 1.1.1h.2c2.1.2 4.2.1 6.2-.2v.2c0 1.3.7 2.3 1.6 2.4-1.9 3.2-3.4 7.4-3.4 7.4-.1.2-.2.6-.4.7-.5.1-.5.1-1 .3-.2-.2-1.6-.4-3.1.1-.8.4-1.7 1.1-2.2 2.2.6-.5 1.7-1.3 2.7-1.2-1.1.6-3 1.8-3.2 3.5 0 0 6.6-4.6 9.8-3.8 0 0-.5.5.6 2.5l.5-1.9c.6-1.8-1.7-2.1-2.6-2.1s.1-.3.3-.8c.6-1.4 1.9-4.6 3.3-6.9 0 0 0-.1.1-.1l-.3-.4s.2-.2.3-.4c.2-.3.4-.8.5-1.5 0-.5-.1-1.2-.5-2l.8-.4c0 .1.1.2.1.3v.1c0 .1.1.1.1.2v.1c0 .1 0 .1.1.2v.1l4.8-1.5-1.1-.9-18.2-16c5.1 2.5 11 5.3 21 10 9.9 4.5 16.1 7.2 19.3 8.5h.1c.5.2.9.4 1.2.5.7.3 1.3.5 1.4.5s.1 0 .2-.1l-36.8-25.1zm-25.5 7.8-5.5 4.2 3.9-8.6c.7 1.2 1.3 2.7 1.6 4.4zm19.6 29.8.1.7 6.4 3.8 1.6.9-.9-2.3c5.3 1.6 9.6 1.6 12.4.3-4.9 1.4-17.2-2.7-19.6-3.4z" fill="#a6a6a6"/><path d="m6.1 47.4c0 .9 2 .8 2 .8 0-.8-1.5-1.8-1.5-1.8s-1.4.6-3 0c-.6-.2-1.3-.2-1.9 0-.8.5-1.7 1.4-1.7 1.4 3.6-1.3 6.1-.4 6.1-.4zm13.4-1.1-3.9 8.6 5.5-4.2c-.4-1.6-1-3.1-1.6-4.4zm40.9 37.7s-12.3-4.6-42.9-19.5l18.3 16.6c1.6-.7 2.8-1.2 5.1.2l-.1-.7c2.2.7 14.6 4.9 19.6 3.4zm-29.7-1.2c.4.8.5 1.5.5 2 0 .7-.3 1.2-.5 1.5-.1.2-.3.4-.3.4l.5.7c.1 0 1.1-.8 1.1-2.6 0-.7-.2-1.5-.6-2.4zm-11 2c.9.1 1.7.2 1.7.2v-.5s-.8-.1-1.6-.2zm-.6-39.3c-.5-.9-1-1.7-1.6-2.4l-4.9 3.6c-2 1-3-.4-3-.4.4.3.8.5 1.4.5 1.2 0 2.1-.9 2.1-2 0-.3-.1-.6-.2-.8-.2-.4-.5-.7-.9-1s-.4-.3-.3-.7.9-1.2.9-1.2l2.4-2.4 2.2-2.2 1.1-1.1c.2-.2.3-.4.3-.4l-2.8 1.2s-.1 0 .2-.5.9-1.4.9-1.4l-5.3 3.7c.3-1.5 3.6-5.9 3.6-5.9l-3.5 3.2c-.2-1.1 1.8-5.3 1.8-5.3-1.3 1.3-2.2 2.7-2.2 2.7 0-1.2.9-3 .9-3-4.2 4.2-5.4 9.5-5.7 11.4-.6.4-.2-.1-.5.6-2.8.8-4.5 3.3-4.8 4 2.3-2.8 5.2-2.6 5.2-2.6s3.5 6.4 2 5.9-.8 2-.8 2l-2.8-1.2c.5.9 1.4 3.1.9 5.4-.6.9-1.2 2-1.7 3.3l1-.2c.2-.4.4-.8.6-1.1 0 0 .1-.1.1-.1 0-.1.1-.1.1-.2 0 0 .1-.1.1-.1 0-.1.1-.1.1-.2 0 0 .1-.1.1-.1 0-.1.1-.1.1-.2 0 0 0-.1.1-.1 0-.1.1-.1.1-.2 0 0 0-.1.1-.1 0-.1.1-.1.1-.2 0 0 0-.1.1-.1.1-.1.1-.2.2-.3.1-.1.1-.2.2-.3 0 0 0-.1.1-.1 0-.1.1-.1.1-.2 0 0 0-.1.1-.1 0 0 .1-.1.1-.2 0 0 .1-.1.1-.1s.1-.1.1-.1.1-.1.1-.1.1-.1.1-.1.1-.1.1-.1.1-.1.1-.1.1-.1.1-.1.1-.1.1-.1.1-.1.1-.1.1-.1.1-.1 0 0 .1-.1c0 0 .1-.1.1-.1s0 0 .1-.1c0 0 .1-.1.1-.1s0 0 .1-.1c0 0 .1-.1.1-.1h.1s.1-.1.1-.1h.1s0 0 .1-.1 0 0 .1-.1h.1s0 0 .1-.1h.1l-.1.3-.9 4.1c3-4.3 7.9-9.1 10.2-11.3zm-9.8-.4.4-.1v.1c.2.5.7.8 1.2.8.2 0 .3 0 .5-.1.3-.1.5-.3.6-.5l-.4-.2c0-.1.1-.2.1-.4 0-.1 0-.3-.1-.4l.9-.3c.3.9-.1 1.9-1 2.2s-1.9-.2-2.2-1.1z" fill="#727272"/><g fill="#a6a6a6"><path d="m89.5 52c-.6-.2-1.5-.2-2.6-.2h-2.5v13.9l.3-.2 2-1.4.1-.1v-3.9h.8c1.4 0 2.6-.4 3.4-1.1.9-.8 1.3-1.8 1.3-3.1 0-1.2-.4-2.2-1.2-3-.5-.4-1-.7-1.6-.9zm-2.1 6.1h-.6v-4.3h.7c1.9 0 2.8.7 2.8 2.1s-1 2.2-2.9 2.2zm15.2 1.6c.8-.2 1.5-.7 2-1.3.6-.7.9-1.6.9-2.6 0-1.3-.5-2.3-1.4-3.1-.8-.7-2.1-1-4-1h-2.5v13.9l.3-.2 2-1.4.1-.1v-4h.1l3.8 5.4.1.1.1-.1 1.6-1.2.1-.1-.1-.1zm-2.7-1.6v-.1-4-.2h.7c1.9 0 2.8.7 2.8 2.1 0 1.5-1 2.2-2.9 2.2zm-32.7-5.9c-.8-.3-1.9-.4-3.3-.4h-3v13.8h3c1.4 0 2.4-.1 3.2-.4s1.6-.7 2.3-1.4c1.5-1.3 2.2-3 2.2-5.1s-.7-3.8-2.1-5.1c-.7-.7-1.5-1.2-2.3-1.4zm.6 9.9c-.5.4-1 .7-1.6.9s-1.3.3-2.2.3h-.7v-9.3h.7c1.7 0 3 .4 3.8 1.2 1 .9 1.4 2 1.4 3.5.1 1.3-.4 2.5-1.4 3.4zm-15.5-8.4c.9 0 1.7.2 2.6.7l.1.1.1-.1 1-1.7.1-.1-.2-.1c-1.2-.7-2.4-1-3.6-1-2.3 0-4.1.8-5.5 2.5-1.2 1.4-1.7 2.9-1.7 4.7 0 1.9.7 3.6 2.1 5s3.1 2.1 5 2.1c1.3 0 2.6-.3 3.7-1l.1-.1v-.1l-1-1.7-.1-.2-.1.1c-.3.2-.5.3-.8.4-.5.2-1.1.3-1.8.3-1.3 0-2.5-.5-3.4-1.4s-1.4-2.1-1.4-3.5.5-2.6 1.4-3.5c1-.9 2.1-1.4 3.4-1.4zm114.9.3h3.1v11.7l.3-.2 2-1.4.1-.1v-10h3.1v-2.2h-8.5v2.2zm-50-2.5c-2 0-3.7.7-5.1 2.1s-2.1 3.1-2.1 5c0 2.2.8 4 2.3 5.4 1.4 1.2 3 1.8 4.8 1.8 2 0 3.7-.7 5.1-2.1s2.1-3.1 2.1-5c0-2-.7-3.7-2.1-5.1-1.3-1.4-3-2.1-5-2.1zm3.4 10.6c-.9.9-2.1 1.4-3.5 1.4-1.2 0-2.4-.5-3.3-1.4-1-.9-1.5-2.1-1.5-3.5s.5-2.5 1.4-3.4 2.1-1.4 3.4-1.4c1.4 0 2.5.5 3.4 1.4s1.4 2.1 1.4 3.5c.1 1.3-.3 2.5-1.3 3.4zm40.1-10.3-4.9 5.1v-5.3l-.3.2-2 1.4-.1.1v12.4l.3-.2 2-1.4.1-.1v-4.2l.2-.2 4.7 5.8.1.1.1-.1 1.7-1.2.2-.1-.1-.1-5-6.1 6-6 .3-.3zm-29 1.4-.1 7.4c0 1.1-.1 1.9-.3 2.3s-.6.6-1.1.6c-.4 0-.8-.2-1.3-.5l-.1-.1-.1.2-1 1.7-.1.1.1.1c.8.5 1.6.7 2.5.7 1.2 0 2.1-.4 2.8-1.3.4-.4.6-.9.8-1.5.1-.5.2-1.3.2-2.4v-9l-.3.2zm14.5.8 1.9-2 .3-.3h-8v13.8h5.8.1l1.8-1.9.3-.3h-5.6v-4.3h1.7v-.1l1.9-1.9.3-.3h-3.9v-2.7z"/><path d="m180.2 56.3c-1.3 0-2.4-1.1-2.4-2.4s1.1-2.4 2.4-2.4 2.4 1.1 2.4 2.4c.1 1.3-1 2.4-2.4 2.4zm0-4.4c-1.1 0-2 .9-2 2s.9 2 2 2 2-.9 2-2c.1-1.1-.8-2-2-2zm.7 3.4-.7-1.1h-.5v1.1h-.4v-2.8h1.1c.5 0 .9.3.9.8 0 .6-.5.8-.7.8l.7 1.1h-.4zm-.4-2.4h-.7v1h.7c.2 0 .5-.2.5-.5s-.3-.5-.5-.5z"/></g></svg>