<svg viewBox="0 0 697.8 283.4" xmlns="http://www.w3.org/2000/svg"><path fill="#a6a6a6" d="m697.7 283.4h-697.7v-283.4h697.8v283.4z"/><path d="m13.6 141.7c0 68.5 140.5 125.4 335.3 125.4s335.2-56.9 335.2-125.4-140.5-125.4-335.2-125.4-335.3 56.9-335.3 125.4z" fill="#fff"/><path fill="#a6a6a6" d="m235.9 87.2c-1.5 3-1.5 5.9-1.5 8.9v37.5s20.1-26.1 24.7-32.3c3.5-4.6 7.8-11.1 7.8-14.1h65.6c-4.5 3-9.5 8.4-13.6 13.4-3.6 4.4-24 29.3-24 29.3s30.3 46.1 34.2 52a57.3235 57.3235 0 0 0 7.4 8.9h-75.5c0-3-2.9-9.1-6.1-13.9s-20.5-31.1-20.5-31.1v36.1c0 3 0 5.9 1.5 8.9h-62.9c1.5-3 1.5-5.9 1.5-8.9v-85.8c0-3 0-5.9-1.5-8.9zm232.9 0h-121.4c1.5 3 1.5 5.9 1.5 8.9v85.8c0 3 0 5.9-1.5 8.9h121.4v-28.7c-3 1.5-5.9 1.5-8.9 1.5h-51.1v-13.6h49.1v-21.9h-49.1v-13.7h51.1c3 0 5.9 0 8.9 1.4zm168.2 94.7a25.0343 25.0343 0 0 0 4.9 8.9h-65.8c.3-3-.8-5.9-2-8.9 0 0-1-2.4-2.4-5.9l-.6-1.5h-37.9l-.6 1.6s-1.1 2.9-2.1 5.9-2.1 5.9-1.7 8.9h-51.9a26.2249 26.2249 0 0 0 4.7-8.9l31.1-85.8c1.1-3 2.2-5.9 1.8-8.9h87.7c-.8 3 .8 5.9 1.9 8.9 2.6 6.5 30.7 79.9 32.9 85.7m-74.2-29.3-9.2-24a53.0506 53.0506 0 0 1 -2-6.8 40.0833 40.0833 0 0 1 -1.8 6.8c-.3 1-4.2 11.5-8.7 24zm-421.1-56.5c0-3 0-5.9 1.5-8.9h-68.4c1.5 3 1.5 5.9 1.5 8.9v85.8c0 3 0 5.9-1.5 8.9h68.4c-1.5-3-1.5-5.9-1.5-8.9zm474.3-.7a13.6545 13.6545 0 0 0 27.3.7v-.7a13.3188 13.3188 0 0 0 -13.1-13.6h-.5a13.0472 13.0472 0 0 0 -13.6 12.7.9718.9718 0 0 0 -.1.9m24.5 0a10.9041 10.9041 0 0 1 -21.8.6v-.7a10.5073 10.5073 0 0 1 10.1-10.9h.8a10.7142 10.7142 0 0 1 10.9 10.5zm-4.2 8.2h-2.7l-3.2-5.8h-3.5v5.8h-2.4v-16.4h6.1a5.2293 5.2293 0 0 1 5.1 5.3 5.48 5.48 0 0 1 -2.9 4.8zm-6.1-8.2a2.7641 2.7641 0 0 0 3-2.7 2.8259 2.8259 0 0 0 -2.7-3h-3.6v5.8h3.3"/></svg>