<svg viewBox="0 0 145.8 50" xmlns="http://www.w3.org/2000/svg"><g fill="#a6a6a6"><path d="m44.6 13.9c-1.9 0-4.9.6-7.2 2.1v-9.9c0-1-.5-1.4-1.4-1.4h-5.1c-.9 0-1.4.5-1.4 1.4v33.1c0 .9.5 1.4 1.4 1.4h5.1c.9 0 1.4-.5 1.4-1.4v-16c0-1.9 2.4-3.1 4.9-3.1 1.6 0 2.8.4 3.5 1 .6.6.9 1.5.9 2.7v15.4c0 .9.5 1.4 1.4 1.4h5.1c.9 0 1.4-.5 1.4-1.4v-15.3c0-7-4.3-10-10-10"/><path d="m15.4 19.1c-5.8-1.8-6.7-3-6.7-4.9s1.8-2.9 5-2.9c2.9 0 6.9 1 8.3 1.2 1 .2 1.5-.3 1.5-1.1v-3.4c0-.7-.3-1.4-1.3-1.8-2.5-.8-5.5-1.3-9.4-1.3-5.9.1-12.1 2.7-12.1 10 0 5.4 3.3 8.5 10.5 10.7 5.2 1.6 6.9 3.1 6.9 5.2 0 2.2-1.9 3.4-6.2 3.4-4.4 0-8.6-1.7-10.3-2.1-1-.3-1.6.2-1.6 1.1v4c0 1.1.8 1.6 1.6 1.9.2.1 4.7 1.9 10.3 1.9h.1c9.5 0 14.1-4 14.1-10.5 0-7.3-4.6-9.4-10.7-11.4"/><path d="m130.9.4c-.4-.2-.9-.4-1.3-.4-.8 0-1.2.5-1.2 1.3v5.3c0 .7.2 1.1.7 1.4 0 0 .1.1.4.3 5.6 3.8 9 9.6 9 16.8s-3.4 13-9 16.8c-.3.2-.4.3-.4.3-.4.3-.7.7-.7 1.4v5.3c0 .9.4 1.3 1.2 1.3.5 0 1-.2 1.3-.4 8.7-4.8 14.8-13.8 14.9-24.8-.1-11-6.2-20-14.9-24.6"/><path d="m69.8 13.9c-2.7 0-5.7.5-7.8 1.1-.8.3-1.3.8-1.3 1.7v3.1c0 .7.5 1.3 1.8 1 1.5-.4 4.3-.9 6.8-.9 3.4 0 5.1 1.6 5.1 4v.9c-1.6-.4-3.3-.6-5.2-.6-7 0-11.3 3.2-11.3 8.8 0 4.9 3.7 8.4 11.1 8.4h.1 1.4c4 0 8.6-1.2 9.9-1.6.5-.1 1.5-.4 1.5-1.5v-13.1c0-4.3-.8-6.7-2.6-8.5-1.9-1.7-5-2.8-9.5-2.8m4.6 21c-.4.1-2.4.6-4.5.6-3 0-4.5-1.2-4.5-3s1.3-3.3 5.2-3.3c1.6 0 3.1.3 3.9.6v5.1z"/><path d="m121.5 14.7h-4.6c-.9 0-1.4.5-1.4 1.4v15.2c0 1.7-1 3.4-3.8 3.4-1.9 0-3.6-.9-3.6-2.5v-16.1c0-.9-.5-1.4-1.4-1.4h-4.6c-.9 0-1.4.5-1.4 1.4v16.1c0 1.8-1.8 2.5-3.8 2.5-2.8 0-3.6-1.6-3.6-3.4v-15.2c0-.9-.5-1.4-1.4-1.4h-4.6c-.9 0-1.4.5-1.4 1.4v15.8c0 6 4.3 9.2 10.5 9.2 3.9 0 6.6-1.4 7.9-2.4 1.4 1 3.8 2.5 7.6 2.5 6.2 0 10.9-2.6 10.9-9.3v-15.8c.1-1-.4-1.4-1.3-1.4"/></g></svg>