<svg viewBox="0 0 139.2 58" xmlns="http://www.w3.org/2000/svg"><g fill="#a6a6a6"><g clip-rule="evenodd" fill-rule="evenodd"><path d="m120.1 26.3c0-4.4 2.7-6.2 5.1-6.2s4.9 1.8 4.9 6.2zm19.1 3.7c0-9.9-4.8-17.7-14-17.7s-14.8 7.8-14.8 17.7c0 11.7 6.6 17.5 16 17.5 4.6 0 8.1-1 10.7-2.5v-7.7c-2.6 1.3-5.6 2.1-9.5 2.1-3.8 0-7.1-1.3-7.5-5.9h18.9c.1-.6.2-2.6.2-3.5z"/><path d="m93.2 38.9c-2.3 0-3.6-.8-4.6-1.8v-14.4c1-1.1 2.4-1.9 4.6-1.9 3.5 0 6 3.9 6 9 0 5.2-2.4 9.1-6 9.1zm2.3-26.7c-3.8 0-6.2 1.8-7.6 3l-.5-2.4h-8.4v45.2l9.7-2.1v-11c1.4 1 3.4 2.4 6.8 2.4 6.9 0 13.2-5.6 13.2-17.8 0-11.1-6.4-17.3-13.2-17.3z"/><path d="m75.4 7.9v-7.9l-9.7 2.1v7.9z"/></g><path d="m65.7 12.9h9.7v33.9h-9.7z"/><path clip-rule="evenodd" d="m55.3 15.8-.6-2.9h-8.4v33.9h9.7v-23c2.3-3 6.1-2.4 7.3-2v-8.9c-1.2-.5-5.8-1.3-8 2.9z" fill-rule="evenodd"/><path clip-rule="evenodd" d="m35.9 4.5-9.4 2v31c0 5.7 4.3 10 10 10 3.2 0 5.5-.6 6.8-1.3v-7.9c-1.2.5-7.3 2.3-7.3-3.4v-13.8h7.3v-8.2h-7.3z" fill-rule="evenodd"/><path clip-rule="evenodd" d="m9.8 22.7c0-1.5 1.2-2.1 3.3-2.1 2.9 0 6.7.9 9.6 2.5v-9.1c-3.2-1.3-6.4-1.8-9.6-1.8-7.9 0-13.1 4.1-13.1 11 0 10.7 14.7 9 14.7 13.6 0 1.8-1.5 2.4-3.7 2.4-3.2 0-7.3-1.3-10.6-3.1v9.2c3.6 1.5 7.3 2.2 10.6 2.2 8 0 13.6-4 13.6-10.9-.1-11.6-14.8-9.5-14.8-13.9z" fill-rule="evenodd"/></g></svg>