<svg viewBox="0 0 186.3 50" xmlns="http://www.w3.org/2000/svg"><g fill="#a6a6a6"><path d="m49 43.9c1.2 1.1 2.7 1.7 4.3 1.8.9 0 1.9-.3 1.9-1.4 0-2.2-8.1-2.1-8.1-7.6 0-3.4 2.8-5.5 6.4-5.5 2.2-.1 4.2.6 5.8 2.1l-1.9 3.7c-1.2-1-2.6-1.5-4-1.6-.9-.1-1.7.4-1.9 1.3v.1c0 2.3 8.1 1.8 8.1 7.6 0 3-2.3 5.5-6.4 5.5-2.5 0-4.9-.9-6.6-2.6zm13.5-12.3h4.4v11.4c0 1.8 1.2 2.9 3.1 2.9s3.1-1 3.1-2.9v-11.4h4.4v11.4c0 4-3 6.9-7.6 6.9-4.5 0-7.6-2.8-7.6-6.9zm19.2 0h6.3c1.2-.1 2.4.1 3.6.4 2.2.9 3.5 2.9 3.4 5.2.1 2.1-1 3.9-2.7 4.9.2.3.4.8.6 1.1l3.6 6.3h-5l-3.2-6.1h-2.1v6.1h-4.4zm6.4 8.1c1.1.1 2.2-.6 2.3-1.8v-.3c0-1.3-.5-2.2-2.7-2.2h-1.5v4.3zm8.5-8.1h4.9l3.2 10.2c.3 1.1.6 2.9.6 2.9s.3-1.7.6-2.9l3.2-10.2h4.8l-6.4 18h-4.5zm19.4 0h4.4v18h-4.4zm17-.2c2.5-.1 5 .9 6.8 2.5l-2.1 3.4c-1.3-1.1-2.9-1.7-4.5-1.8-2.7-.1-5 1.9-5.1 4.5v.5c-.1 2.8 2.1 5.2 4.9 5.4h.3c1.8-.1 3.6-.9 4.9-2.2l2.3 3.2c-1.9 1.9-4.5 3-7.4 3-5 .2-9.3-3.6-9.5-8.6v-.8c-.1-5.1 3.9-9.2 9-9.3zm19.1 14.4h-5.6l-1.1 3.8h-4.5l6.2-18h4.7l6.2 18h-4.5zm-2.8-10.1s-.4 1.9-.8 3.1l-1.1 3.5h3.6l-1-3.5c-.3-1-.7-3.1-.7-3.1zm13.1-.3h-5.5v-3.8h15.5v3.8h-5.5v14.2h-4.4v-14.2zm12.2-3.8h11.4v3.8h-6.9v3.2h5.5v3.7h-5.5v3.4h7.3v3.8h-11.7v-17.9z"/><path d="m27.3 36.6-6.3-6.3-3.2 3.1 9.5 9.4 15.9-15.7-3.2-3.1z"/><path d="m46.7 8c-10.7-10.7-28-10.7-38.7 0l-8 7.9 13 12.9 3.2-3.1-5-5 4.8-4.7-4.8-4.7c9-8.8 23.3-8.8 32.3 0l-4.7 4.7 8 7.9 8-7.9z"/><path d="m19.4 19.2 7.9 7.9 7.9-7.9h-.1z"/></g></svg>