<svg xmlns="http://www.w3.org/2000/svg" viewBox="0 0 86 65"><path fill="#a6a6a6" d="M7.3,60.082c-.285.664.015,1.515-.471,2.107a1.992,1.992,0,0,1-3-.2A4.839,4.839,0,0,1,3.1,59.072a4.492,4.492,0,0,1,.857-2.944A2.1,2.1,0,0,1,6.216,55.7c.585.246.685.938.813,1.5.1.433.2,1.01.7,1.14a1.545,1.545,0,0,0,1.57-.274c.385-.606.157-1.342.171-2.02a15.2,15.2,0,0,0-.029-2.136c-.085-.519-.713-.577-1.127-.5-.457.057-.585.548-.757.895-.9-1.155-2.54-1.155-3.839-.838A4.77,4.77,0,0,0,.307,56.922a8.258,8.258,0,0,0,.028,4.56,4.768,4.768,0,0,0,2.37,2.958,6.081,6.081,0,0,0,3.882.375A3.988,3.988,0,0,0,9.4,63.069,3.43,3.43,0,0,0,9.727,60.5,1.415,1.415,0,0,0,7.3,60.082Zm42.447-21.27a1.89,1.89,0,0,0-1.085.159,2.872,2.872,0,0,1-3.183-1.025,7.862,7.862,0,0,1-1.241-2.828,7.961,7.961,0,0,1,.713-5.8,6.636,6.636,0,0,1,4.211-3.42,8.043,8.043,0,0,1,6.223,1.443,6.166,6.166,0,0,1,2.4,4.04,27.833,27.833,0,0,1,.271,4.748A17.88,17.88,0,0,1,57.2,40.1a20.864,20.864,0,0,1-1.056,2.554,10.547,10.547,0,0,0-.928,2.41c.058.1.143.288.186.39.6-.072.956-.621,1.37-1.01Q65.7,35.349,74.624,26.272a6.347,6.347,0,0,0,1.884-2.742A3.851,3.851,0,0,0,75.124,20.8Q65.661,11.041,56.17,1.279c-.157-.217-.428-.144-.657-.144-.057.1-.157.274-.2.375.528,1.183,1.428,2.179,1.841,3.42a20.22,20.22,0,0,1,1.371,7.1,8.151,8.151,0,0,1-2.213,5.83,8.3,8.3,0,0,1-6.337,1.977,6.574,6.574,0,0,1-4.453-2.15,6.256,6.256,0,0,1-1.356-3.911,9.74,9.74,0,0,1,.8-4.6A3.756,3.756,0,0,1,48.12,7.08c.685-.058,1.356.216,2.041.115a2.641,2.641,0,0,0-.585-2.121A12.855,12.855,0,0,0,46.265,1.8,9.865,9.865,0,0,0,38.672.211,8.58,8.58,0,0,0,34.09,3.184a18.82,18.82,0,0,0-3.254,6.089A43.983,43.983,0,0,0,28.7,20.4a54.726,54.726,0,0,0,.571,11.833c.642,3.579,1.613,7.229,3.811,10.159a9.572,9.572,0,0,0,6.351,3.9,10.383,10.383,0,0,0,6.737-1.314,9.27,9.27,0,0,0,3.6-4.011C50,40.3,50.361,39.374,49.747,38.812Zm6.037,15.109a3.241,3.241,0,0,0-2.112-.664,3.373,3.373,0,0,0-2.583.736,3.456,3.456,0,0,0-.728,2.453c-.6.014-1.3-.231-1.813.159-.385.447-.4,1.384.214,1.644a5.766,5.766,0,0,0,1.413-.014,4.265,4.265,0,0,1,.143,1.7,28.068,28.068,0,0,1-.057,2.9c-.485.058-.971-.115-1.47-.043a1.114,1.114,0,0,0-.443,1.66,1.737,1.737,0,0,0,1.456.288,28.745,28.745,0,0,1,4.025.029,1.166,1.166,0,0,0,1.1-.4,1.079,1.079,0,0,0-.485-1.573c-.5-.086-.985.1-1.485.043-.085-1.515-.057-3.03-.014-4.545.5-.058,1.013.058,1.5-.044.6-.418.571-1.616-.186-1.832a11.493,11.493,0,0,0-1.413.029c.015-.477-.085-1.054.257-1.444.157-.187.443-.129.657-.129.085.346.057.779.371,1.01a1.406,1.406,0,0,0,1.969-.274A1.484,1.484,0,0,0,55.784,53.921ZM28,56.33a2.985,2.985,0,0,0-2.384.188,3.342,3.342,0,0,0-1.113,1.4,6,6,0,0,0-.1-1.6c-.985,0-1.984-.015-2.983-.043-.942.043-1.113,1.644-.257,1.962a12.916,12.916,0,0,1,1.3-.072,24.105,24.105,0,0,1,.057,2.5,18.92,18.92,0,0,1-.057,2.207,9.983,9.983,0,0,0-1.313-.086c-.443.115-.557.649-.528,1.053a.855.855,0,0,0,.542.895,25.476,25.476,0,0,0,2.555-.073c.956-.029,1.9.159,2.854.087s1.014-1.789.086-1.977c-.471-.029-.942.1-1.413.1a11.243,11.243,0,0,1-.086-2.078,3.253,3.253,0,0,1,.5-2.063,1.937,1.937,0,0,1,.97-.549,1.958,1.958,0,0,0,.086,1.184,1.494,1.494,0,0,0,2.213.216A2.182,2.182,0,0,0,28,56.33Zm9.42.13a2.987,2.987,0,0,0-2.484-.043,3.284,3.284,0,0,0-1.3,1.486,6.675,6.675,0,0,0-.071-1.6c-.714-.028-1.427.058-2.141-.014-.485-.014-1.113-.145-1.441.318a1.091,1.091,0,0,0,.314,1.616c.428,0,.87-.087,1.3-.058a18.484,18.484,0,0,1,.072,2.352,18.484,18.484,0,0,1-.072,2.352c-.5,0-1.056-.231-1.527.014-.514.534-.428,1.891.5,1.876.856.015,1.713-.144,2.569-.1.856,0,1.713.159,2.569.087,1-.087,1.027-1.789.085-1.977-.485-.043-.97.173-1.455.029a23.781,23.781,0,0,1,0-2.67,1.886,1.886,0,0,1,1.427-1.933,1.733,1.733,0,0,0,.157,1.255,1.449,1.449,0,0,0,2.426-.3A2.26,2.26,0,0,0,37.416,56.46ZM74.938,62.8c-.114-1.963,0-3.925-.057-5.888a3.451,3.451,0,0,0-.143-.649c-.97-.058-1.955.087-2.926-.014-.356,0-.77-.087-1.056.173a1.194,1.194,0,0,0-.128,1.544c.442.346,1.056.173,1.584.231a23.908,23.908,0,0,1,.043,2.468,3.157,3.157,0,0,1-.342,1.544,1.3,1.3,0,0,1-1.528.36,1.209,1.209,0,0,1-.656-1.183c-.029-1.01,0-2.02-.015-3.03a7.929,7.929,0,0,0-.128-2.093c-.828-.072-1.656.087-2.483.015a5.2,5.2,0,0,0-1.342.014A1.124,1.124,0,0,0,65.6,58.12a9.805,9.805,0,0,0,1.441.072c.129,1.587-.043,3.174.143,4.747a2.234,2.234,0,0,0,1.142,1.674,3.361,3.361,0,0,0,4.41-1.2,8.782,8.782,0,0,0,.014,1.357c.814.058,1.628-.13,2.427-.029.457,0,1,.2,1.384-.159a1.293,1.293,0,0,0,.1-1.616C76.166,62.593,75.509,62.881,74.938,62.8Zm10.02-6.32a2.775,2.775,0,0,0-2.684.057,3.739,3.739,0,0,0-1.07,1.284,4.329,4.329,0,0,0-.171-1.543,20.1,20.1,0,0,1-2.8-.015c-.842-.043-1.2,1.082-.742,1.674.371.621,1.128.029,1.67.274.057,1.53.057,3.059.014,4.589-.485.115-1-.115-1.484.029a1.2,1.2,0,0,0,.1,1.876,5.835,5.835,0,0,0,1.584,0,20.851,20.851,0,0,1,3.283.072c.4,0,.9.014,1.156-.346a1.134,1.134,0,0,0-.4-1.645,10.26,10.26,0,0,0-1.484.086,10.075,10.075,0,0,1-.086-2.078,3.1,3.1,0,0,1,.557-2.121,1.765,1.765,0,0,1,.9-.476c-.014.418-.128.894.143,1.255a1.451,1.451,0,0,0,2.5-.476A2.269,2.269,0,0,0,84.958,56.475Zm-37.68,4.343c.371-.375.257-.967.228-1.443a3.578,3.578,0,0,0-1.6-2.684,5.376,5.376,0,0,0-3.54-.52,3.893,3.893,0,0,0-3.111,2.887,5.409,5.409,0,0,0,.457,4.026,3.9,3.9,0,0,0,2.911,1.832,5.9,5.9,0,0,0,3.682-.606,2.193,2.193,0,0,0,1.1-1.486,1.143,1.143,0,0,0-.271-1.025,1.626,1.626,0,0,0-1.67-.231c-.671.246-.628,1.27-1.356,1.4a1.829,1.829,0,0,1-1.784-.491,2.606,2.606,0,0,1-.428-1.558c1.556-.014,3.112,0,4.667,0A2.025,2.025,0,0,0,47.278,60.818ZM41.969,59.39a1.8,1.8,0,0,1,.442-1.039,1.583,1.583,0,0,1,1.8-.231,1.525,1.525,0,0,1,.614,1.27C43.881,59.418,42.925,59.418,41.969,59.39Zm21.08-2.584a4.9,4.9,0,0,0-3.454-.664,3.912,3.912,0,0,0-3.368,3.175,5.091,5.091,0,0,0,.927,4.329,4.15,4.15,0,0,0,3.24,1.328,4.213,4.213,0,0,0,3.226-1.183,4.778,4.778,0,0,0,1.142-4A4.089,4.089,0,0,0,63.049,56.806ZM61.893,62.03a1.6,1.6,0,0,1-2.655.375,3.314,3.314,0,0,1-.513-2.323,2.22,2.22,0,0,1,.9-1.775,1.652,1.652,0,0,1,2.269.707A3.878,3.878,0,0,1,61.893,62.03Zm-43.36.707c-.114-1.544.057-3.088-.114-4.632a1.834,1.834,0,0,0-.785-1.4,4.746,4.746,0,0,0-2.626-.606,5.393,5.393,0,0,0-2.955.578,1.521,1.521,0,0,0-.6,1.962,1.769,1.769,0,0,0,2.369.39c.471-.26.285-.881.385-1.328a1.913,1.913,0,0,1,1.171-.014,1.014,1.014,0,0,1,.542.938,1.225,1.225,0,0,1-.885.765c-.87.288-1.812.317-2.683.606a2.282,2.282,0,0,0-1.385.894,2.929,2.929,0,0,0-.328,2.049,2.532,2.532,0,0,0,2.041,1.949,4.981,4.981,0,0,0,3.9-.823,2.165,2.165,0,0,0,2.783.678,1.167,1.167,0,0,0,.357-1.631A8.8,8.8,0,0,0,18.533,62.737Zm-3.054-.014a1.554,1.554,0,0,1-1.742.245.818.818,0,0,1,.015-1.414c.685-.274,1.413-.361,2.1-.606A2.56,2.56,0,0,1,15.479,62.723Z" fill-rule="evenodd"/><path fill="#a6a6a6" d="M22.986,2.2a7.152,7.152,0,0,1,1.156-1.038,3.222,3.222,0,0,1,.514.129c.071.592-.357,1.039-.642,1.515-.628,1.04-1.228,2.107-1.87,3.146a28.053,28.053,0,0,0-3.24,9.6,47.944,47.944,0,0,0-.585,5.715,38.374,38.374,0,0,0,.87,10.981,32.556,32.556,0,0,0,3.469,8.961c.613,1.184,1.341,2.309,2.012,3.464a1.082,1.082,0,0,1,.114.765c-.571.144-.956-.332-1.313-.693-6.38-6.35-12.8-12.641-19.168-18.99a3.738,3.738,0,0,1-1.356-2.6c.257-1.371,1.428-2.266,2.341-3.2Q14.131,11.056,22.986,2.2Z" fill-rule="evenodd"/></svg>