<svg viewBox="0 0 189.5 70" xmlns="http://www.w3.org/2000/svg"><g fill="#a6a6a6"><path d="m108.9 68.8-.2-.6c-.9.3-1.5.4-1.9.4-1.2 0-1.9-1.1-1.9-3.1 0-1.9.7-2.9 2-2.9.5 0 1 .1 1.7.2l.2-.6c-.7-.2-1.4-.3-1.9-.3-1.9 0-2.9 1.3-2.9 3.7s1 3.7 2.7 3.7c.5.1 1.3-.1 2.2-.5z"/><path d="m115.5 69.2v-7.2h-.9v3.1h-3.5v-3.1h-.8v7.2h.8v-3.4h3.5v3.4z"/><path d="m118.1 69.2v-7.2h-.9v7.2z"/><path d="m125 69.2v-7.2h-.7v6.4l-3.2-6.4h-1.3v7.2h.7v-6.3l3.3 6.3z"/><path d="m129.6 62h-1l-2.6 7.2h.8l.7-1.9h3.1l.7 1.9h.9zm-1.8 4.6 1.3-3.9 1.3 3.9z"/><path d="m150.6 69.2-.2-7.2h-1.2l-2.1 6.6-2.1-6.6h-1.2l-.3 7.2h.8l.2-6.3 2 6.3h1.1l2-6.3.2 6.3z"/><path d="m155.2 62h-1l-2.6 7.2h.8l.7-1.9h3.1l.7 1.9h.9zm-1.8 4.6 1.3-3.9 1.3 3.9z"/><path d="m163 69.2v-.6h-3.2v-6.6h-.9v7.2z"/><path d="m167.2 62h-1l-2.6 7.2h.8l.7-1.9h3.1l.7 1.9h.9zm-1.8 4.6 1.3-3.9 1.3 3.9z"/><path d="m175.2 62h-.9l-1.9 3.4-2-3.4h-1l2.5 4.1v3.1h.8v-3.1z"/><path d="m180 67.2c0-1.1-.4-1.6-2-2.1-1.4-.4-1.5-.6-1.5-1.3 0-.8.6-1.2 1.3-1.2.4 0 1 .1 1.7.2l.2-.6c-.7-.2-1.3-.3-1.9-.3-1.3 0-2.2.8-2.2 2 0 1.7 1.7 1.8 2.8 2.3.6.2.7.5.7 1.1 0 .8-.7 1.3-1.6 1.3-.5 0-1.1-.1-1.8-.3l-.2.7c.8.2 1.4.3 2.1.3 1.4 0 2.4-.8 2.4-2.1z"/><path d="m182.2 69.2v-7.2h-.9v7.2z"/><path d="m186.8 62h-1l-2.6 7.2h.8l.7-1.9h3.1l.7 1.9h.9zm-1.8 4.6 1.3-3.9 1.3 3.9z"/><path d="m87 66.3v-4.3h-.7v4.6c0 .7-.1 1-.2 1.3-.3.5-.8.7-1.6.7-1.2 0-1.8-.5-1.8-1.7v-4.9h-.9v4.2c0 1.4.1 1.7.4 2.2.4.6 1.2.9 2.2.9.9 0 1.6-.2 2-.7.5-.4.6-.8.6-2.3z"/><path d="m93.6 69.2-3.3-3.8 3.2-3.4h-1l-3.1 3.3v-3.3h-.9v7.2h.9v-3.7l3.1 3.7z"/><path d="m98.2 61.3h.3v8.7h-.3z"/><path d="m137.2 61.3h.3v8.7h-.3z"/><path d="m186.7 51.4v-8.7c0-1.1-.6-2-2-2-.8 0-1.4.2-1.9.7.1.4.2.8.2 1.7v8.3h-2.8v-8.7c0-1-.3-2-2-2-.9 0-1.2.1-1.7.4v10.4h-2.8v-11.5c1-.5 2.5-1 4.6-1 1.7 0 2.9.4 3.5 1 .8-.6 1.9-1 3.5-1 2.9 0 4.2 1.7 4.2 3.8v8.7h-2.8z"/><path d="m157.5 51.4v-8.5c0-1.2-.5-2-2-2-.9 0-1.5.2-2 .6v10h-2.8v-16.5h2.8v4.5c.7-.3 1.8-.5 2.7-.5 3 0 4.1 1.8 4.1 3.7v8.7z"/><path d="m123.7 37.4c-1.1 0-1.6-.7-1.6-1.5s.6-1.5 1.6-1.5 1.6.7 1.6 1.5-.6 1.5-1.6 1.5z"/><path d="m134 51.4v-8.7c0-1-.4-2-2.2-2-.9 0-1.4.1-1.9.4v10.4h-2.8v-11.5c1-.5 2.7-1 4.8-1 3.6 0 4.8 1.8 4.8 3.7v8.7z"/><path d="m122.3 51.4v-12.2h2.8v12.2z"/><path d="m118.7 51.5c-2.4 0-3.4-1.4-3.4-3.3v-7.2h-1.3v-1.8h1.4v-2.5l2.8-.8v3.2h2v1.9h-2v7.3c0 1.1.6 1.4 1.4 1.4h.8v1.8c-.4 0-1.1 0-1.7 0z"/><path d="m111.3 51.5c-2.4 0-3.4-1.4-3.4-3.3v-7.2h-1.4v-1.8h1.4v-2.5l2.8-.8v3.2h2v1.9h-2v7.3c0 1.1.6 1.4 1.4 1.4h.8v1.8c-.3 0-1 0-1.6 0z"/><path d="m91.1 51.4-5.8-9.8c-.4-.6-.6-1.2-1-1.9.1.8.1 1.4.1 2v9.7h-2.7v-15.6h2.9l5.4 9.2c.3.5.6 1 .9 1.8-.1-.8-.1-1.3-.1-1.9v-9.1h2.7v15.6z"/><path d="m166.9 39c-1.9 0-3.4.5-4.2.9l.6 1.7c.7-.4 1.9-.8 3-.8 1.5 0 2.4.4 2.4 2v.7c-.2 0-1-.2-1.8-.2-2.8 0-5.1 1.5-5.1 4.4 0 2.4 1.6 4.1 5 4.1 1.9 0 3.5-.4 4.5-.9v-7.7c.1-3.2-1.9-4.2-4.4-4.2zm1.9 10.9c-.3.1-1 .3-1.6.3-1.5 0-2.5-1-2.5-2.6s.9-2.7 2.5-2.7c.8 0 1.3.1 1.5.2v4.8z"/><path d="m144.3 39c-3.9 0-5.9 2.5-5.9 6.5 0 3.8 1.9 6.1 4.9 6.1 1.1 0 1.9-.2 2.4-.5v.8c0 1.6-.9 2.7-2.9 2.7-1.4 0-2.2-.4-2.9-.7l-.8 1.7c.9.5 2.4.9 4.2.9 3 0 5.1-1.7 5.1-4.9v-11.8c-.8-.4-2.2-.8-4.1-.8zm1.4 10.3c-.4.2-1 .4-1.6.4-2 0-2.8-1.5-2.8-4.3 0-2.9.9-4.7 3-4.7.6 0 1 0 1.5.3v8.3z"/><path d="m100.5 39c-3.5 0-5.2 2.6-5.2 6.4 0 3.7 1.7 6.3 5.2 6.3s5.2-2.6 5.2-6.3c0-3.8-1.7-6.4-5.2-6.4zm.2 11c-1.9 0-2.2-2.5-2.2-4.6 0-2.2.3-4.7 2.2-4.7s2.2 2.5 2.2 4.7c0 2.1-.3 4.6-2.2 4.6z"/><path d="m165.4 20.2c-1 0-1.2.5-1.2 1.2v.4h1.5v1.5h-1.5v6.9h-2.2v-6.9h-1v-1.5h.9v-.6c0-1.7 1.1-2.6 2.9-2.6.4 0 .6 0 1 .1v1.5z"/><path d="m144.7 33.5c-1.2 0-2.2-.3-2.9-.6l.5-1.3c.5.2 1.1.4 2.1.4 1.4 0 1.8-.6 1.8-1.7v-.5c-.3.2-.8.4-1.7.4-2.1 0-3-1-3-2.7v-5.7h2.2v5.6c0 .8.3 1.4 1.3 1.4.5 0 .9-.2 1.1-.3v-6.6h2.2v8c.1 2.6-1.4 3.6-3.6 3.6z"/><path d="m138.8 30.3c-1.6 0-2.4-.9-2.4-2.3v-4.7h-.9v-1.5h.9v-1.8l2.2-.6v2.3h1.4v1.5h-1.4v4.5c0 .8.4 1 .9 1 .3 0 .5 0 .8-.1v1.4c-.3.2-.7.3-1.5.3z"/><path d="m131.7 30.2v-8.4h2.2v8.4z"/><path d="m127.1 30.3c-1.1 0-1.9-.3-2.6-.6l.5-1.4c.4.2 1 .5 1.7.5.8 0 1.3-.3 1.3-.9s-.4-.9-1.4-1.2c-1.6-.6-1.9-1.6-1.9-2.5 0-1.3 1-2.5 2.9-2.5 1 0 1.8.3 2.4.6l-.6 1.3c-.3-.2-.9-.4-1.5-.4-.8 0-1.1.3-1.1.9s.6.8 1.3 1.1c1.7.6 2.1 1.6 2.1 2.6 0 1.4-1.3 2.5-3.1 2.5z"/><path d="m123.8 23.3c-.2-.1-.6-.1-1-.1s-.7.1-.9.1v6.9h-2.2v-7.9c.3-.2 1.6-.6 3.1-.6.9 0 1.1.1 1.4.1z"/><path d="m100.6 20.8c-.8 0-1.2-.5-1.2-1.1s.4-1.1 1.2-1.1 1.2.5 1.2 1.1-.5 1.1-1.2 1.1z"/><path d="m107.7 30.2h-2.1l-2.9-8.4h2.4l1.1 3.9c.1.4.4 1.4.5 1.8h.1c.1-.5.3-1.5.4-1.8l1.1-3.9h2.2z"/><path d="m99.4 30.2v-8.4h2.2v8.4z"/><path d="m132.8 20.8c-.8 0-1.2-.5-1.2-1.1s.4-1.1 1.2-1.1 1.2.5 1.2 1.1-.4 1.1-1.2 1.1z"/><path d="m95.6 30.2v-5.9c0-.6-.3-1.2-1.4-1.2-.5 0-.9.1-1.1.2v6.9h-2.2v-7.9c.9-.4 2.1-.6 3.5-.6 2.5 0 3.5 1.2 3.5 2.6v5.9z"/><path d="m85.6 30.3c-2.2 0-3.8-1.1-3.8-3.3v-7.5h2.3v7.5c0 1 .5 1.6 1.5 1.6.9 0 1.5-.5 1.5-1.6v-7.5h2.3v7.5c-.1 2.2-1.7 3.3-3.8 3.3z"/><path d="m156.5 21.6c-2.5 0-3.7 1.8-3.7 4.3s1.2 4.4 3.7 4.4 3.7-1.8 3.7-4.4c0-2.4-1.2-4.3-3.7-4.3zm0 7.3c-1.1 0-1.4-1.3-1.4-2.9s.3-2.9 1.4-2.9 1.4 1.3 1.4 2.9-.2 2.9-1.4 2.9z"/><path d="m118.2 25.8c0-2.6-1.3-4.2-3.6-4.2s-3.7 1.6-3.7 4.3c0 2.8 1.6 4.4 4.1 4.4 1.3 0 2.3-.3 3-.6l-.5-1.5c-.6.3-1.2.5-2.2.5s-1.9-.4-2.1-2.1h5.2v-.8zm-2.1-.6h-3.1c0-1.6.6-2.2 1.6-2.2.9 0 1.6.5 1.6 2.1v.1z"/><path d="m29.8 31.4c0-.5-.4-.9-.9-.9s-.9.4-.9.9l-.3 8.5h2.4z"/><path d="m0 70h70v-70h-70zm42.2-55.2c2 .5 3.5 1.2 5.1 2v3.9c-1.6-.7-3.3-1.3-5.1-1.7zm-20.3 27.8 1.9-1.9.7-11.4-2.3-2.2v-10.1c1.7-1 3.5-1.7 5.5-2.3v4.9c1.1-.3 2.2-.5 3.4-.6v-5c1.2-.1 2.5-.2 3.8-.2 1.4 0 2.7.1 3.9.3v5.2c1.2.1 2.4.3 3.4.6 1.8.5 3.5 1 5.1 1.8v6l-2.4 2.2c-1.9-.7-4-1.1-6.4-1.1-.7 0-1.4 0-2.1.1l1-3.6-2.4 3.7v11.7l1.2 1.5v8.4c-2.9-1.6-5.6-2.3-7.8-2.3-2.4 0-4.3.7-5.8 1.5l-.6-.7v-6.5zm19.7-2.7h-2.4l.3-8.5c0-.5.4-.9.9-.9s.9.4.9.9zm-14.6 9.9c3.5 0 6.3 1.1 8.8 2.4 2.3 1.2 4.1 1.8 6.7 1.8 2.1 0 4.5-.6 6.7-2.4-2.8 3.6-6 4.7-8.8 4.7-2.9 0-5-.9-7.3-2.1-2.1-1.1-4.1-1.8-6.8-1.8-2.5 0-5.5.6-8.7 2.6 2.6-4 6.1-5.2 9.4-5.2z"/></g></svg>