<svg viewBox="0 0 176 40" xmlns="http://www.w3.org/2000/svg"><g fill="#a6a6a6"><path d="m20.4 7.4c1.8.8 2.7 2.2 2.7 4.3 0 1.9-.8 3.4-2.3 4.2-.9.5-2 .6-7 .7l-6 .1v-5-5h5.7c4.7 0 5.7.1 6.9.7zm-20.4 12.3v19.7h3.8 3.8v-8-8l2.9.1 2.9.1 4.5 7.9 4.5 7.9h4.4c2.4 0 4.4-.1 4.4-.2s-2-3.7-4.5-8.1-4.6-8-4.6-8.1c-.1-.1.7-.6 1.7-1.1 2.3-1.2 4.7-3.4 5.7-5.3 1.4-2.8 1.5-7.8.1-10.4-1.4-2.7-4.7-5-8.3-5.8-.9-.3-5.4-.4-11.4-.4h-9.9z"/><path d="m122 20v19.4h3.7 3.7v-19.4-19.4h-3.7-3.7z"/><path d="m162.7 18.8c.1 14.9.1 15 .8 16.5.8 1.7 2.8 3.6 4.4 4.3.7.3 2.3.4 4.6.4h3.5v-3.2-3.2h-2c-1.6 0-2.2-.2-2.9-.7l-.8-.6v-7.5-7.5h2.9 2.9v-3-3h-2.9-2.9v-3.8-3.7h-3.9-3.8z"/><path d="m49.8 17.4c.8.6 1.6 1.5 2.1 2.6l.8 1.6-7.1.1c-3.9 0-7.2 0-7.3-.1-.4-.4 1.9-3.3 3.5-4.3s1.9-1.1 4.2-1c2.1.2 2.7.3 3.8 1.1zm-8.6-6.2c-2.6.9-4.3 2-6.2 3.9-1.9 2.1-2.8 3.7-3.5 6.4-1.7 7.3 1.4 14.3 7.8 17.3 2 1 2.2 1 6.2 1 3.6 0 4.4-.1 6-.8 2.2-.9 5.2-3.5 6.4-5.7l.8-1.6-2.6-1.5c-1.4-.8-2.7-1.5-2.8-1.5s-.7.6-1.2 1.4c-1.3 1.9-3 3-5.1 3.4-1.9.4-3.2.2-4.9-.7-1.9-1-3.8-3.5-3.8-5.1 0-.6.1-.6 10.5-.6h10.5v-2.7c0-6.1-2.8-10.7-8.1-13-2.2-.9-7.5-1.1-10-.2z"/><path d="m106.9 18.2c4.5 2 5.9 8 2.9 11.9-2.1 2.8-6.6 3.9-9.7 2.3-1.7-.9-3.5-2.9-4-4.4-.6-1.9-.3-5.3.7-6.8 2.4-3.5 6.3-4.6 10.1-3zm-7.8-7.2c-4.1 1.2-7.9 4.2-9.5 7.6-1.1 2.5-1.6 6.3-1.1 9.2 1.2 7.6 6.8 12.1 15 12.1 4.8 0 8-1.2 11.1-3.9 1.8-1.6 3-3.7 3.8-6.4.7-2.3.5-7.6-.3-9.8-1.3-3.6-4.8-7-8.7-8.4-2.5-.8-7.8-1-10.3-.4z"/><path d="m59.2 11.6c.1.2 2.7 6.6 5.7 14.1l5.5 13.7 3.5-.1 3.5-.1 5.4-13.3c3-7.3 5.5-13.6 5.6-14l.2-.7-3.9.1-3.9.1-3.4 9c-1.9 5-3.5 8.9-3.6 8.8s-1.7-4.2-3.5-9.1l-3.3-8.9h-4c-3.2 0-3.9.1-3.8.4z"/><path d="m133.2 19.9c0 4.9.2 9.6.4 10.6.7 3.9 2.8 6.6 6.3 8.3 2 1 2.3 1 6.4 1s4.4-.1 6.2-.9c3.5-1.7 5.8-4.6 6.5-8.4.2-1.1.4-5.7.4-10.6v-8.7h-3.6-3.7l-.1 8.7c-.1 8.4-.1 8.8-.8 10.1-1 1.9-2.7 2.8-5.3 2.6-2.3-.1-3.6-.9-4.5-2.7-.5-1.1-.6-2.2-.7-10l-.1-8.7h-3.7-3.6v8.7z"/></g></svg>