<svg viewBox="0 0 98 70" xmlns="http://www.w3.org/2000/svg"><g fill="#a6a6a6"><path d="m46.9 10.9v30.5h-25.2z"/><path d="m46.9 0c0 7-5.6 12.6-12.6 12.6s-12.6-5.6-12.6-12.6z"/><path d="m51.1 41.4c0-7 5.6-12.6 12.6-12.6s12.6 5.6 12.6 12.6z"/><path d="m51.1 30.5v-30.5h25.2z"/><path d="m65.2 67.4c1.6 0 2.8-.7 3.5-1.4l1.7 1.9c-1.1 1.2-2.7 2.1-5.2 2.1-4.2 0-7-2.8-7-6.6s2.9-6.6 6.6-6.6c4.2 0 6.6 3.2 6.4 7.6h-9.9c.3 1.9 1.6 3 3.9 3m3-5.1c-.3-1.7-1.3-3-3.3-3-1.9 0-3.2 1.1-3.6 3z"/><path d="m0 67.3 7.6-7.8h-7.4v-2.4h11v2.5l-7.7 7.8h7.8v2.4h-11.3z"/><path d="m19.9 67.4c1.6 0 2.8-.7 3.5-1.4l1.7 1.9c-1.1 1.2-2.7 2.1-5.2 2.1-4.2 0-7-2.8-7-6.6s2.9-6.6 6.6-6.6c4.2 0 6.6 3.2 6.4 7.6h-9.9c.3 1.9 1.6 3 3.9 3m3-5.1c-.3-1.7-1.3-3-3.3-3-1.9 0-3.2 1.1-3.6 3z"/><path d="m42.4 63.4c0-4.1 3-6.6 6.4-6.6 1.7 0 3.3.7 4.2 1.9v-7.5h2.7v18.5h-2.7v-1.7c-1 1.2-2.6 2-4.3 2-3.2 0-6.3-2.6-6.3-6.6m10.7 0c0-2.3-1.7-4.1-4-4.1s-4 1.8-4 4.1 1.8 4.1 4 4.1c2.3 0 4-1.8 4-4.1"/><path d="m72.9 67.1 2.4-1.3c.7 1.2 1.8 1.9 3.3 1.9s2.3-.8 2.3-1.7c0-1-1.5-1.2-3.1-1.6-2.2-.5-4.4-1.2-4.4-3.8 0-2 1.9-3.9 4.9-3.8 2.4 0 4.1.9 5.1 2.5l-2.3 1.2c-.6-.9-1.6-1.4-2.9-1.4-1.5 0-2.2.7-2.2 1.5 0 .9 1.2 1.2 3 1.6 2.1.5 4.5 1.1 4.5 3.8 0 1.7-1.5 4.1-5.1 4.1-2.5-.1-4.4-1.2-5.5-3"/><path d="m91 64.1-2.1 2.3v3.3h-2.7v-18.5h2.7v12.2l5.7-6.3h3.3l-5 5.4 5.1 7.2h-3.1z"/><path d="m34.2 56.8c-3.2 0-5.9 2.1-5.9 5.5v7.4h2.8v-7.1c0-2.1 1.2-3.3 3.2-3.3s3.1 1.2 3.1 3.3v7.1h2.8v-7.4c-.1-3.4-2.8-5.5-6-5.5"/></g></svg>